<?xml version="1.0" encoding="UTF-8" standalone="no"?>
<!DOCTYPE svg PUBLIC "-//W3C//DTD SVG 1.1//EN" "http://www.w3.org/Graphics/SVG/1.1/DTD/svg11.dtd">
<svg xmlns="http://www.w3.org/2000/svg" version="1.1" viewBox="0.00 0.00 500.00 500.00">
<path fill="#cccccc" d="
  M 320.47 235.34
  A 69.12 69.12 0.0 0 1 251.35 304.46
  A 69.12 69.12 0.0 0 1 182.23 235.34
  A 69.12 69.12 0.0 0 1 251.35 166.22
  A 69.12 69.12 0.0 0 1 320.47 235.34
  Z
  M 212.10 190.69
  L 296.03 274.95
  A 0.71 0.70 -47.1 0 0 297.07 274.91
  Q 312.40 256.62 311.62 232.96
  C 310.69 204.84 289.00 179.88 261.11 175.58
  Q 234.09 171.41 212.18 189.23
  Q 211.33 189.92 212.10 190.69
  Z
  M 200.02 203.49
  Q 186.57 226.11 192.98 250.98
  C 198.87 273.78 219.08 291.95 242.43 295.18
  Q 269.30 298.90 290.59 281.39
  Q 291.36 280.76 290.66 280.06
  L 206.58 195.65
  A 0.57 0.57 0.0 0 0 205.76 195.67
  Q 202.50 199.32 200.02 203.49
  Z"
/>
<path fill="#cccccc" d="
  M 268.52 208.42
  L 268.55 204.96
  A 0.75 0.74 -89.6 0 1 269.29 204.22
  L 285.02 204.28
  Q 285.76 204.28 285.77 205.02
  L 285.83 208.36
  A 1.07 1.05 -3.0 0 0 286.99 209.39
  C 289.92 209.13 294.38 208.84 294.38 213.07
  Q 294.39 236.20 294.35 258.26
  A 3.03 3.03 0.0 0 1 291.32 261.28
  L 286.55 261.27
  A 1.91 1.88 67.4 0 1 285.20 260.70
  L 268.08 243.50
  Q 267.66 243.07 267.75 242.48
  C 268.04 240.65 268.47 238.81 268.46 236.96
  C 268.39 225.31 257.37 217.12 246.13 220.66
  A 1.05 1.04 59.1 0 1 245.07 220.39
  L 234.80 209.95
  Q 234.32 209.47 235.00 209.46
  L 267.58 209.36
  Q 268.51 209.36 268.52 208.42
  Z"
/>
<path fill="#cccccc" d="
  M 217.00 222.24
  L 228.23 222.25
  A 3.02 3.01 -22.6 0 1 230.35 223.12
  L 235.27 227.99
  A 1.72 1.72 0.0 0 1 235.66 229.85
  Q 232.92 236.73 235.14 242.92
  C 238.63 252.66 249.15 256.80 258.56 252.77
  A 1.34 1.33 55.6 0 1 260.02 253.05
  L 267.68 260.59
  Q 268.32 261.22 267.42 261.23
  Q 241.64 261.30 216.26 261.41
  C 212.35 261.43 208.13 262.22 208.18 256.75
  Q 208.34 237.31 208.18 213.43
  C 208.15 208.47 212.98 209.53 216.09 209.47
  Q 216.66 209.45 217.07 209.86
  L 221.59 214.31
  Q 222.22 214.94 221.33 214.95
  L 217.00 215.00
  Q 215.02 215.02 215.02 217.00
  L 215.02 220.25
  Q 215.02 222.24 217.00 222.24
  Z"
/>
<path fill="#cccccc" d="
  M 263.39 232.35
  Q 264.52 235.03 264.10 238.39
  Q 264.00 239.16 263.46 238.61
  L 249.83 224.95
  A 0.43 0.43 0.0 0 1 250.12 224.21
  Q 259.82 223.91 263.39 232.35
  Z"
/>
<path fill="#cccccc" d="
  M 245.59 248.66
  Q 236.74 243.86 238.92 233.14
  Q 239.15 232.01 239.96 232.83
  L 255.45 248.49
  Q 256.15 249.19 255.19 249.44
  Q 249.72 250.89 245.59 248.66
  Z"
/>
<path fill="#8a9075" fill-opacity="0.996" d="
  M 190.44 325.49
  A 2.09 2.06 61.3 0 0 189.54 325.22
  Q 185.04 324.94 183.56 322.88
  Q 182.06 320.81 183.68 318.59
  C 185.76 315.75 190.52 316.34 193.33 317.43
  Q 193.84 317.63 193.78 318.18
  L 193.70 318.96
  A 0.34 0.34 0.0 0 1 193.20 319.22
  Q 190.31 317.62 187.02 318.03
  C 185.30 318.24 184.24 319.80 184.83 321.52
  A 1.89 1.88 -5.9 0 0 186.40 322.79
  C 189.45 323.16 194.71 323.56 194.08 327.99
  C 193.40 332.81 186.76 332.38 183.43 331.04
  Q 182.59 330.70 182.61 329.80
  L 182.62 329.23
  Q 182.64 328.32 183.39 328.82
  Q 185.85 330.45 189.17 330.30
  Q 191.69 330.18 192.31 328.05
  Q 192.68 326.76 190.44 325.49
  Z"
/>
<path fill="#8a9075" fill-opacity="0.996" d="
  M 237.42 317.93
  Q 236.74 318.04 236.39 317.45
  Q 236.00 316.81 236.75 316.80
  L 241.66 316.76
  Q 242.52 316.76 242.12 317.51
  Q 241.75 318.20 240.97 318.01
  Q 240.08 317.80 240.09 318.71
  L 240.22 329.52
  Q 240.22 330.18 240.88 330.11
  Q 241.62 330.04 242.06 330.57
  A 0.73 0.73 0.0 0 1 241.50 331.77
  L 237.02 331.73
  Q 236.31 331.72 236.17 331.02
  L 236.10 330.69
  A 0.31 0.31 0.0 0 1 236.43 330.33
  Q 237.21 330.40 237.82 330.06
  Q 238.24 329.83 238.23 329.35
  Q 238.23 323.60 238.24 318.63
  A 0.71 0.71 0.0 0 0 237.42 317.93
  Z"
/>
<path fill="#8a9075" fill-opacity="0.996" d="
  M 199.30 326.18
  Q 197.40 325.98 198.15 327.73
  L 198.41 328.32
  Q 199.24 330.25 201.34 330.45
  Q 203.70 330.68 205.52 329.45
  Q 206.06 329.09 206.10 329.74
  L 206.14 330.31
  Q 206.18 330.90 205.65 331.17
  Q 204.03 332.01 202.19 331.96
  C 192.85 331.74 195.56 318.11 203.29 320.51
  Q 206.50 321.51 206.23 325.67
  Q 206.19 326.21 205.66 326.24
  Q 202.17 326.49 199.30 326.18
  Z
  M 198.26 325.10
  L 204.51 324.94
  A 0.20 0.20 0.0 0 0 204.71 324.73
  L 204.71 324.62
  A 3.24 3.19 -1.5 0 0 201.38 321.52
  L 201.20 321.52
  A 3.24 3.19 -1.5 0 0 198.05 324.80
  L 198.05 324.91
  A 0.20 0.20 0.0 0 0 198.26 325.10
  Z"
/>
<path fill="#8a9075" fill-opacity="0.996" d="
  M 210.93 321.09
  Q 211.24 321.63 211.76 321.29
  Q 215.07 319.09 217.62 321.72
  A 0.47 0.47 0.0 0 0 218.27 321.75
  C 220.87 319.42 225.20 319.58 225.34 324.06
  Q 225.44 327.81 225.33 331.21
  Q 225.31 331.79 224.73 331.75
  L 224.35 331.72
  Q 223.54 331.66 223.55 330.85
  L 223.61 324.02
  Q 223.64 321.44 221.09 321.89
  Q 220.53 321.98 220.25 322.03
  Q 217.99 322.43 218.03 324.72
  L 218.14 330.80
  Q 218.16 331.68 217.27 331.79
  L 217.01 331.83
  A 0.60 0.60 0.0 0 1 216.34 331.23
  L 216.37 324.00
  Q 216.38 321.52 213.92 321.89
  Q 213.42 321.97 212.90 322.05
  Q 210.87 322.36 210.89 324.42
  L 210.97 331.16
  A 0.61 0.61 0.0 0 1 210.31 331.78
  L 210.02 331.76
  Q 209.16 331.69 209.16 330.83
  L 209.17 321.03
  A 0.52 0.52 0.0 0 1 209.52 320.55
  Q 210.44 320.22 210.93 321.09
  Z"
/>
<path fill="#8a9075" fill-opacity="0.996" d="
  M 247.91 321.25
  Q 250.98 319.21 253.54 321.42
  Q 254.19 321.99 254.86 321.45
  C 257.50 319.33 261.46 319.91 261.57 324.01
  Q 261.68 327.79 261.52 331.41
  Q 261.49 332.15 260.80 331.87
  L 260.46 331.73
  Q 259.76 331.45 259.76 330.70
  L 259.77 323.99
  Q 259.77 321.40 257.23 321.87
  L 256.51 322.01
  Q 254.23 322.43 254.28 324.74
  L 254.40 330.84
  Q 254.42 331.66 253.60 331.78
  L 253.19 331.84
  A 0.60 0.59 85.8 0 1 252.51 331.25
  L 252.55 324.21
  Q 252.56 321.58 249.95 321.90
  Q 249.63 321.94 249.38 321.97
  Q 247.10 322.24 247.12 324.53
  L 247.16 330.98
  Q 247.17 331.72 246.43 331.77
  L 246.05 331.80
  Q 245.25 331.85 245.25 331.05
  L 245.25 321.19
  Q 245.25 320.61 245.81 320.48
  Q 246.60 320.30 247.01 321.03
  Q 247.34 321.63 247.91 321.25
  Z"
/>
<path fill="#8a9075" fill-opacity="0.996" d="
  M 272.28 324.33
  Q 273.24 324.25 273.00 323.31
  Q 272.75 322.38 271.05 321.87
  A 2.66 2.28 49.4 0 0 270.47 321.78
  Q 268.50 321.72 266.73 322.36
  A 0.42 0.41 -14.9 0 1 266.17 322.04
  L 266.12 321.79
  Q 265.99 321.00 266.75 320.75
  C 269.53 319.84 274.75 319.70 274.76 323.97
  Q 274.76 327.50 274.73 331.06
  Q 274.72 331.75 274.03 331.82
  Q 273.52 331.87 273.23 331.42
  Q 272.65 330.53 271.77 331.12
  C 266.27 334.74 262.39 326.70 267.89 325.12
  Q 269.95 324.53 272.28 324.33
  Z
  M 272.51 325.71
  C 270.62 325.82 268.06 325.76 267.17 327.69
  A 1.79 1.79 0.0 0 0 268.45 330.20
  Q 270.54 330.61 272.54 329.36
  Q 273.02 329.05 273.03 328.47
  L 273.05 326.23
  Q 273.06 325.68 272.51 325.71
  Z"
/>
<path fill="#8a9075" fill-opacity="0.996" d="
  M 284.31 330.75
  C 275.58 335.28 274.19 318.21 284.04 320.59
  C 284.82 320.78 285.52 320.85 286.28 320.56
  Q 286.96 320.30 286.98 321.03
  Q 287.17 326.64 286.91 331.54
  C 286.68 335.98 282.34 336.53 278.93 335.66
  A 0.90 0.90 0.0 0 1 278.25 334.68
  L 278.30 334.27
  A 0.47 0.47 0.0 0 1 278.90 333.87
  Q 281.13 334.52 283.34 334.14
  Q 284.89 333.87 285.17 332.32
  L 285.31 331.49
  Q 285.56 330.10 284.31 330.75
  Z
  M 279.03 327.75
  A 2.23 2.23 0.0 0 0 281.57 329.98
  L 283.30 329.74
  A 2.23 2.23 0.0 0 0 285.22 327.56
  L 285.27 323.99
  A 2.23 2.23 0.0 0 0 282.77 321.75
  L 281.04 321.95
  A 2.23 2.23 0.0 0 0 279.07 324.14
  L 279.03 327.75
  Z"
/>
<path fill="#8a9075" fill-opacity="0.996" d="
  M 291.10 327.11
  C 291.99 330.99 296.00 331.28 298.83 329.35
  A 0.23 0.23 0.0 0 1 299.19 329.52
  L 299.28 330.71
  Q 299.30 330.95 299.09 331.05
  C 294.97 333.17 289.58 331.83 289.43 326.46
  Q 289.27 320.65 294.81 320.28
  Q 297.50 320.10 298.64 322.54
  Q 298.97 323.24 299.30 323.94
  Q 300.42 326.35 297.77 326.32
  L 291.78 326.27
  Q 290.91 326.26 291.10 327.11
  Z
  M 291.48 325.05
  L 297.56 324.99
  A 0.23 0.23 0.0 0 0 297.79 324.76
  L 297.78 324.64
  A 3.19 3.13 -0.6 0 0 294.56 321.54
  L 294.40 321.54
  A 3.19 3.13 -0.6 0 0 291.24 324.70
  L 291.25 324.82
  A 0.23 0.23 0.0 0 0 291.48 325.05
  Z"
/>
<path fill="#8a9075" fill-opacity="0.996" d="
  M 305.05 321.12
  Q 308.17 319.36 310.69 321.60
  Q 311.20 322.05 311.72 321.61
  Q 312.27 321.15 312.95 320.87
  C 316.82 319.29 318.64 321.35 318.56 325.02
  Q 318.49 328.28 318.52 331.20
  Q 318.53 331.74 317.98 331.75
  L 317.52 331.75
  A 0.71 0.71 0.0 0 1 316.81 331.02
  L 316.95 324.07
  Q 317.00 321.54 314.49 321.86
  Q 314.03 321.92 313.66 321.96
  Q 311.37 322.26 311.38 324.56
  L 311.41 331.10
  A 0.64 0.64 0.0 0 1 310.74 331.75
  L 310.43 331.73
  Q 309.61 331.69 309.62 330.87
  L 309.65 324.01
  Q 309.66 321.53 307.21 321.89
  Q 306.72 321.96 306.23 322.03
  Q 304.07 322.35 304.11 324.53
  L 304.22 330.87
  Q 304.23 331.72 303.38 331.75
  L 303.05 331.76
  Q 302.33 331.78 302.33 331.05
  L 302.36 321.23
  A 0.71 0.71 0.0 0 1 302.87 320.55
  Q 303.55 320.34 304.00 320.91
  Q 304.44 321.46 305.05 321.12
  Z"
/>
</svg>
