<?xml version="1.0" encoding="UTF-8" standalone="no"?>
<!DOCTYPE svg PUBLIC "-//W3C//DTD SVG 1.1//EN" "http://www.w3.org/Graphics/SVG/1.1/DTD/svg11.dtd">
<svg xmlns="http://www.w3.org/2000/svg" version="1.1" viewBox="0.00 0.00 500.00 450.00">
<path fill="#0080ff" d="
  M 465.6438 250.4057
  A 221.18 221.04 1.6 0 1 238.3782 465.1838
  A 221.18 221.04 1.6 0 1 23.4562 238.0543
  A 221.18 221.04 1.6 0 1 250.7218 23.2762
  A 221.18 221.04 1.6 0 1 465.6438 250.4057
  Z
  M 270.56 348.82
  A 1.36 1.36 0.0 0 1 271.75 348.12
  Q 329.76 348.15 385.49 348.23
  Q 392.44 348.24 395.09 343.55
  Q 396.55 340.95 396.42 334.72
  C 396.18 323.02 396.79 288.72 396.20 258.50
  C 395.90 243.57 396.09 228.88 395.68 214.25
  Q 395.06 192.04 395.45 166.64
  Q 395.51 162.80 394.45 159.82
  C 392.94 155.58 387.98 153.77 383.84 153.23
  Q 383.32 153.17 383.13 152.68
  C 381.77 149.16 381.40 146.36 377.25 145.12
  Q 346.80 136.06 314.66 132.92
  Q 309.27 132.39 296.15 132.49
  C 289.14 132.54 282.29 133.62 275.62 134.84
  Q 260.13 137.67 245.76 145.19
  Q 245.18 145.50 244.57 145.61
  Q 243.66 145.77 243.23 145.60
  Q 220.74 136.92 196.96 133.19
  C 192.47 132.49 187.32 132.27 182.52 131.81
  Q 174.13 130.99 159.76 133.15
  Q 139.17 136.24 118.56 143.15
  C 113.78 144.75 109.83 145.40 107.59 150.39
  Q 106.43 152.97 103.52 153.14
  Q 97.74 153.49 95.11 158.20
  Q 93.57 160.97 93.61 167.50
  Q 93.78 189.56 93.42 214.50
  Q 92.58 273.83 92.63 338.24
  Q 92.63 341.59 93.97 343.66
  Q 96.84 348.10 102.31 348.11
  Q 157.57 348.25 214.48 348.09
  Q 216.94 348.08 219.44 348.26
  Q 220.00 348.30 220.32 348.76
  C 221.49 350.44 221.72 352.47 223.11 354.00
  Q 226.48 357.71 232.01 357.68
  Q 245.37 357.63 260.41 357.53
  C 263.84 357.51 268.56 355.20 269.57 351.30
  Q 269.91 350.00 270.56 348.82
  Z"
/>
<path fill="#0080ff" d="
  M 119.94 216.43
  C 119.95 196.65 119.58 177.18 119.83 157.10
  A 2.02 2.01 81.0 0 1 121.19 155.22
  Q 143.30 147.73 164.93 144.85
  C 176.57 143.30 190.31 144.15 203.10 146.76
  Q 220.48 150.31 235.53 155.74
  Q 236.34 156.03 236.43 156.89
  Q 236.69 159.19 236.64 161.75
  Q 236.31 177.38 236.70 190.45
  C 237.09 203.42 237.00 216.08 237.19 228.73
  Q 237.51 249.47 237.58 272.48
  C 237.62 287.81 238.32 303.46 238.03 318.82
  A 0.76 0.76 0.0 0 1 237.01 319.52
  C 220.71 313.56 203.73 310.00 186.99 310.04
  Q 168.89 310.08 150.15 313.97
  Q 135.61 316.98 120.73 321.12
  A 0.78 0.78 0.0 0 1 119.74 320.37
  Q 119.92 266.98 119.94 216.43
  Z"
/>
<path fill="#0080ff" d="
  M 368.58 156.13
  Q 369.59 156.65 369.50 158.03
  Q 369.47 158.48 369.46 158.93
  Q 369.30 220.02 369.30 281.03
  C 369.30 292.78 368.96 305.82 369.01 317.90
  Q 369.02 320.78 366.33 319.79
  Q 363.48 318.75 360.59 318.04
  Q 339.13 312.72 320.37 310.48
  Q 304.93 308.63 287.78 310.21
  Q 272.97 311.57 256.74 317.04
  Q 256.13 317.25 255.42 317.24
  Q 255.02 317.23 254.63 317.33
  Q 253.83 317.52 253.82 316.70
  C 253.73 309.08 253.25 301.50 253.23 293.72
  C 253.19 276.05 253.41 258.17 252.96 240.26
  Q 251.96 200.96 251.96 161.65
  C 251.96 158.19 251.40 156.30 254.46 154.98
  Q 275.47 145.90 297.70 145.09
  Q 305.64 144.81 317.70 146.20
  Q 341.32 148.91 364.38 154.92
  C 365.84 155.30 367.17 155.41 368.58 156.13
  Z"
/>
<path fill="#0080ff" d="
  M 192.44 322.20
  Q 209.51 323.16 224.27 327.86
  Q 226.76 328.65 224.16 328.84
  Q 220.80 329.07 217.73 329.00
  C 203.23 328.66 188.13 328.98 174.24 328.84
  Q 158.73 328.69 142.28 329.04
  Q 141.71 329.05 141.89 328.52
  Q 142.04 328.08 142.49 327.97
  Q 157.34 324.40 173.28 322.72
  Q 183.22 321.67 192.44 322.20
  Z"
/>
<path fill="#0080ff" d="
  M 267.12 327.15
  Q 270.27 326.59 273.28 325.77
  Q 276.41 324.91 279.48 324.48
  Q 284.02 323.84 288.39 323.14
  C 295.57 322.00 303.26 322.49 310.50 322.51
  Q 313.77 322.52 316.87 323.15
  C 319.59 323.71 322.23 323.64 324.96 324.06
  Q 335.20 325.65 344.41 327.62
  Q 348.16 328.42 344.33 328.55
  C 339.00 328.73 333.52 328.48 328.15 328.48
  Q 297.14 328.52 265.56 328.49
  Q 264.40 328.49 265.36 327.84
  Q 266.11 327.33 267.12 327.15
  Z"
/>
</svg>
